
<svg xmlns="http://www.w3.org/2000/svg" xml:space="preserve" width="1509px" height="415px" style="shape-rendering:geometricPrecision; text-rendering:geometricPrecision; image-rendering:optimizeQuality; fill-rule:evenodd; clip-rule:evenodd"
viewBox="0 0 1332.49 366.418">
 <defs>
  <style type="text/css">
   <![CDATA[
    .fil2 {fill:#077D36}
    .fil0 {fill:#48AC3C}
    .fil3 {fill:#525359}
    .fil1 {fill:#93C02C}
   ]]>
  </style>
 </defs>
 <g id="Слой_x0020_1">
  <metadata id="CorelCorpID_0Corel-Layer"/>
  <g id="_452046584">
   <polygon id="_452043944" class="fil0" points="504.909,7.91199 504.909,257.177 302.424,358.63 "/>
   <polygon id="_452055512" class="fil1" points="504.909,7.91199 707.393,358.627 504.909,257.177 "/>
   <polygon id="_452045312" class="fil2" points="504.909,257.178 707.394,358.63 302.422,358.63 "/>
   <path id="_452055488" class="fil3" d="M741.994 100.571c0,-72.3029 65.6976,-100.571 129.121,-100.571 44.892,0 85.9224,10.3022 125.704,30.991l-29.1379 50.468c-26.9938,-12.0249 -58.2757,-23.1416 -87.9872,-22.7536 -25.3534,0.332665 -76.6651,5.83258 -76.6651,40.8635 0,68.9033 209.223,37.442 209.223,162.772 0,81.6593 -67.4433,104.077 -137.632,104.077 -44.7669,0 -95.3673,-13.073 -136.755,-29.7886l31.9108 -55.2713c8.45427,3.37983 16.9857,6.39154 25.6861,9.11126 21.5001,6.71586 51.0687,14.1534 73.6503,14.1534 24.5358,0 81.0356,-3.96799 81.0409,-38.7768 0.00625701,-73.6075 -208.158,-40.4161 -208.158,-165.275z"/>
   <polygon id="_452048624" class="fil3" points="65.4849,155.346 122.155,155.346 207.254,7.95058 276.887,7.95058 175.669,183.269 276.887,358.585 207.254,358.585 122.157,211.195 65.4849,211.195 65.4849,358.629 -0,358.629 -0,7.91199 65.4849,7.91199 "/>
   <path id="_452053400" class="fil3" d="M1090.55 358.635l241.943 0 0 -55.8741 -176.458 0 0 -91.5474 161.364 0 0 -55.8741 -161.364 0 0 -91.5526 176.458 0 0 -55.8751 -241.943 0c0,116.909 0,233.814 0,350.723z"/>
  </g>
 </g>
</svg>
